<?xml version="1.0" encoding="UTF-8" standalone="no"?>
<!-- Created with Inkscape (http://www.inkscape.org/) -->

<svg
   width="179.47163mm"
   height="152.1376mm"
   viewBox="0 0 179.47163 152.1376"
   version="1.1"
   id="svg5"
   inkscape:version="1.1.2 (0a00cf5339, 2022-02-04)"
   sodipodi:docname="csp-logo-big.svg"
   xmlns:inkscape="http://www.inkscape.org/namespaces/inkscape"
   xmlns:sodipodi="http://sodipodi.sourceforge.net/DTD/sodipodi-0.dtd"
   xmlns:xlink="http://www.w3.org/1999/xlink"
   xmlns="http://www.w3.org/2000/svg"
   xmlns:svg="http://www.w3.org/2000/svg">
  <sodipodi:namedview
     id="namedview7"
     pagecolor="#505050"
     bordercolor="#ffffff"
     borderopacity="1"
     inkscape:pageshadow="0"
     inkscape:pageopacity="0"
     inkscape:pagecheckerboard="1"
     inkscape:document-units="mm"
     showgrid="false"
     inkscape:snap-global="true"
     inkscape:zoom="0.5"
     inkscape:cx="64"
     inkscape:cy="498"
     inkscape:window-width="1896"
     inkscape:window-height="1030"
     inkscape:window-x="10"
     inkscape:window-y="456"
     inkscape:window-maximized="1"
     inkscape:current-layer="layer1" />
  <defs
     id="defs2">
    <linearGradient
       inkscape:collect="always"
       id="linearGradient22334">
      <stop
         style="stop-color:#0d0c13;stop-opacity:1;"
         offset="0"
         id="stop22330" />
      <stop
         style="stop-color:#0d0c13;stop-opacity:0;"
         offset="1"
         id="stop22332" />
    </linearGradient>
    <linearGradient
       inkscape:collect="always"
       id="linearGradient21940">
      <stop
         style="stop-color:#0d0c13;stop-opacity:1"
         offset="0"
         id="stop21936" />
      <stop
         style="stop-color:#0d0c13;stop-opacity:0"
         offset="1"
         id="stop21938" />
    </linearGradient>
    <linearGradient
       inkscape:collect="always"
       id="linearGradient20090">
      <stop
         style="stop-color:#1f1f37;stop-opacity:1;"
         offset="0"
         id="stop20086" />
      <stop
         style="stop-color:#0d0c13;stop-opacity:0"
         offset="1"
         id="stop20088" />
    </linearGradient>
    <linearGradient
       inkscape:collect="always"
       xlink:href="#linearGradient20090"
       id="linearGradient20092"
       x1="139.22742"
       y1="68.040413"
       x2="142.35643"
       y2="50.695877"
       gradientUnits="userSpaceOnUse" />
    <linearGradient
       inkscape:collect="always"
       xlink:href="#linearGradient21940"
       id="linearGradient21776"
       x1="158.33232"
       y1="89.709358"
       x2="165.53754"
       y2="97.062706"
       gradientUnits="userSpaceOnUse" />
    <linearGradient
       inkscape:collect="always"
       xlink:href="#linearGradient22334"
       id="linearGradient22336"
       x1="65.154755"
       y1="128.9505"
       x2="52.12149"
       y2="134.66948"
       gradientUnits="userSpaceOnUse" />
  </defs>
  <g
     inkscape:groupmode="layer"
     id="layer3"
     inkscape:label="Background 2"
     style="opacity:1"
     transform="translate(-15.867365,-27.216899)">
    <path
       style="fill:#2b0000;fill-rule:evenodd;stroke-width:1.28729"
       d="m 284.33936,674.86347 c -0.0838,-0.53101 -0.0838,-1.39993 0,-1.93094 0.0838,-0.53101 -0.38081,-0.96547 -1.03257,-0.96547 -0.65176,0 -1.58922,-1.88267 -2.08324,-4.1837 -0.49403,-2.30104 -1.53327,-5.34227 -2.30943,-6.75829 -0.77616,-1.41603 -1.46995,-2.86423 -1.54175,-3.21824 -0.0718,-0.354 -1.05775,-2.67113 -2.19099,-5.14917 -3.92571,-8.5843 -6.24652,-14.1444 -9.39134,-22.49942 -3.11427,-8.27385 -3.90306,-10.09278 -6.84312,-15.78009 -0.81855,-1.58341 -1.48828,-3.52677 -1.48828,-4.31857 0,-0.7918 -1.4243,-4.27535 -3.16511,-7.74123 -1.74081,-3.46587 -2.83275,-6.30159 -2.42653,-6.30159 0.40622,0 -0.23852,-1.49123 -1.43275,-3.31385 -1.19422,-1.82262 -2.38199,-4.40782 -2.63949,-5.74488 -0.46157,-2.39676 -3.59228,-10.05736 -5.89185,-14.4169 -0.6485,-1.22942 -1.17908,-2.82244 -1.17908,-3.54006 0,-0.86777 26.62292,-1.29324 79.49036,-1.27036 l 79.49035,0.0344 -8.3674,7.65681 c -4.60208,4.21125 -8.20823,8.2938 -8.01369,9.07234 0.19454,0.77853 -0.1625,1.09647 -0.79343,0.70654 -1.279,-0.79047 -5.73635,3.56714 -4.70438,4.59912 0.35989,0.35989 -0.65259,1.76108 -2.24995,3.11376 l -2.9043,2.45942 2.54189,-3.21823 c 1.39803,-1.77003 0.12422,-0.95723 -2.83071,1.80621 -2.95493,2.76345 -5.25734,5.37022 -5.11648,5.79282 0.14087,0.42261 -0.0817,0.76838 -0.49469,0.76838 -1.43268,0 -11.01245,8.92056 -45.13312,42.02743 -31.33303,30.40206 -36.84656,35.17868 -37.29892,32.31375 z"
       id="path3292"
       transform="scale(0.26458333)" />
    <path
       style="fill:#2b0000;fill-rule:evenodd;stroke-width:1.28729"
       d="m 263.63125,621.76262 -22.49783,-54.06631 h 79.13646 79.13648 l -14.30231,13.60853 c -7.86626,7.4847 -14.17127,14.00162 -14.01113,14.48205 0.16015,0.48043 -0.28811,1.0676 -0.99612,1.30481 -2.65354,0.88903 -4.44881,3.12832 -3.64132,4.54191 0.45972,0.8048 0.36998,1.04199 -0.19943,0.52709 -1.41579,-1.28026 -5.24385,2.18499 -44.61777,40.38902 -18.86406,18.30357 -34.57075,33.27922 -34.90375,33.27922 -0.333,0 -10.72948,-24.32984 -23.10328,-54.06632 z"
       id="path3331"
       transform="scale(0.26458333)" />
    <path
       style="fill:#232238;fill-opacity:1;stroke:none;stroke-width:0.264583px;stroke-linecap:butt;stroke-linejoin:miter;stroke-opacity:1"
       d="M 195.33899,64.161169 149.60926,27.216899 83.150793,46.161069 17.781589,147.59357 75.692827,179.3545 105.75516,150.22118 149.98304,128.56524 181.19182,122.21349 170.6302,87.285557 195.339,64.161169"
       id="path3787"
       sodipodi:nodetypes="cccccccccc" />
    <path
       style="fill:url(#linearGradient20092);fill-opacity:1;stroke:none;stroke-width:0.264583px;stroke-linecap:butt;stroke-linejoin:miter;stroke-opacity:1"
       d="M 83.150791,46.161068 195.33899,64.161169 185.74567,56.523826 96.738809,42.129956 83.150791,46.161068"
       id="path20051" />
    <path
       style="fill:url(#linearGradient21776);fill-opacity:1;stroke:none;stroke-width:0.264583px;stroke-linecap:butt;stroke-linejoin:miter;stroke-opacity:1"
       d="m 170.6302,87.285556 -20.59813,19.985484 0.0195,6.8666 22.44735,-20.745688 z"
       id="path21735" />
    <path
       style="fill:url(#linearGradient22336);fill-opacity:1;stroke:none;stroke-width:0.264583px;stroke-linecap:butt;stroke-linejoin:miter;stroke-opacity:1"
       d="m 44.956436,105.41387 -6.125639,9.75748 25.830096,58.09118 11.031934,6.09197 z"
       id="path22295" />
  </g>
  <g
     inkscape:groupmode="layer"
     id="layer2"
     inkscape:label="Background"
     style="opacity:1"
     transform="translate(-15.867365,-27.216899)">
    <path
       sodipodi:type="star"
       style="fill:#313153;fill-opacity:1;fill-rule:evenodd;stroke:none"
       id="path1732"
       inkscape:flatsided="true"
       sodipodi:sides="3"
       sodipodi:cx="166.52917"
       sodipodi:cy="88.299957"
       sodipodi:r1="241.69043"
       sodipodi:r2="122.66398"
       sodipodi:arg1="-0.333483"
       sodipodi:arg2="0.71371455"
       inkscape:rounded="0"
       inkscape:randomized="0"
       d="M 394.90439,9.1859494 120.85631,325.6357 -16.173172,-69.921774 Z"
       transform="matrix(0.43658825,0,0,0.36401777,22.928382,60.81732)"
       inkscape:transform-center-x="-18.410307"
       inkscape:transform-center-y="7.6716404" />
  </g>
  <g
     inkscape:label="Layer 1"
     inkscape:groupmode="layer"
     id="layer1"
     style="opacity:1"
     transform="translate(-15.867365,-27.216899)">
    <rect
       style="fill:#ececec;fill-opacity:1;fill-rule:evenodd;stroke-width:0.318962"
       id="rect401"
       width="95.238182"
       height="78.935387"
       x="51.678982"
       y="60.039307" />
    <path
       style="fill:#000000;stroke-width:0.1"
       d="M 50,100 V 50 H 100.00001 150 v 50 50 H 100.00001 50 Z m 72.20001,31.4 v -3.3 H 90.400004 58.600002 v 3.3 3.3 H 90.400004 122.20001 Z M 78.250002,107.0514 c 1.365567,-0.2108 2.962406,-0.6184 4.399997,-1.1233 l 1.100008,-0.3863 0.02646,-3.1209 c 0.01453,-1.7165 1.89e-4,-3.1209 -0.03189,-3.1209 -0.03201,0 -0.538961,0.1607 -1.126429,0.357 -1.617603,0.5407 -3.930544,1.1099 -5.269525,1.297 -1.640811,0.2291 -4.076398,0.1583 -5.148615,-0.1497 -2.657315,-0.7635 -4.317639,-2.5409 -5.235072,-5.6043 -0.963224,-3.2162 -0.965539,-8.0568 -0.0047,-11.1171 1.0185,-3.246 2.947855,-5.3149 5.640391,-6.0483 0.820252,-0.2235 3.651544,-0.2564 4.5,-0.052 1.049079,0.2523 2.756339,0.8453 3.999993,1.3895 0.687508,0.3008 1.336595,0.554 1.442434,0.5626 0.162236,0.013 0.377775,-0.4464 1.373279,-2.9278 0.649453,-1.6189 1.163363,-2.9609 1.142008,-2.9822 -0.108779,-0.1088 -1.968839,-0.858 -2.921244,-1.1767 -2.52945,-0.8463 -4.894076,-1.249 -7.3166,-1.2457 -4.784103,0.01 -8.521856,1.4453 -11.419868,4.3963 -2.130386,2.1694 -3.663122,5.2161 -4.345231,8.6371 -0.819065,4.1079 -0.531888,9.169 0.735322,12.9592 0.530555,1.5868 0.965904,2.5084 1.750788,3.7063 2.215542,3.3815 5.579204,5.333 10.159118,5.8941 1.175481,0.1441 5.267753,0.054 6.549994,-0.1436 z m 24.100008,0.01 c 5.55841,-0.9731 8.75249,-4.0255 9.25731,-8.8469 0.24009,-2.293 -0.23443,-4.5078 -1.32521,-6.1852 -1.24452,-1.9139 -3.08794,-3.2655 -7.42127,-5.4412 -5.652405,-2.8379 -6.251579,-3.3818 -6.140449,-5.5742 0.05043,-0.995 0.25689,-1.4912 0.879614,-2.1139 0.768305,-0.7683 1.814525,-1.0965 3.499995,-1.098 1.94296,0 3.70215,0.3877 6.57176,1.4544 0.80399,0.2989 1.46902,0.5322 1.47785,0.5185 0.0228,-0.035 2.22907,-5.3905 2.30225,-5.588 0.0473,-0.1277 -0.0997,-0.2298 -0.6755,-0.4695 -2.02982,-0.845 -4.4901,-1.5906 -6.17636,-1.8718 -1.31405,-0.2191 -4.19967,-0.3007 -5.49999,-0.1554 -4.20695,0.4699 -7.250013,2.3092 -8.702356,5.2598 -0.735779,1.4948 -0.935338,2.4374 -0.942105,4.45 -0.0071,2.0239 0.153767,2.8297 0.846945,4.25 0.784736,1.6079 1.680059,2.6486 3.358736,3.9042 0.92341,0.6907 1.978654,1.2798 4.91521,2.7441 3.83945,1.9145 4.96843,2.6997 5.51742,3.8374 0.68022,1.4097 0.16351,3.3382 -1.134,4.2323 -1.28389,0.8848 -4.02507,1.0519 -6.93007,0.4225 -1.129229,-0.2446 -3.211572,-0.949 -5.419265,-1.833 l -1.560521,-0.6249 -0.02646,3.4087 c -0.02421,3.1132 -0.01181,3.4195 0.143788,3.5334 0.285968,0.2096 2.12355,0.8952 3.23765,1.2081 1.097327,0.3081 2.451059,0.5647 3.771119,0.7149 1.189701,0.1353 5.117949,0.049 6.173919,-0.1363 z m 22.95,-6.398 v -6.1366 l 2.875,-0.055 c 2.96438,-0.057 4.03565,-0.1663 5.647,-0.5768 3.01241,-0.7674 5.48312,-2.6176 6.75179,-5.0561 0.95134,-1.8286 1.36358,-3.6642 1.35624,-6.0387 -0.008,-2.4669 -0.51123,-4.3558 -1.61509,-6.058 -1.31121,-2.022 -3.19939,-3.3395 -5.76494,-4.0225 -2.07597,-0.5527 -1.98811,-0.5473 -9.575,-0.5909 l -7.075,-0.041 v 17.356 17.3561 h 3.7 3.7 z m 0,-17.3588 v -5.1218 l 2.625,0.037 c 2.56058,0.036 2.64437,0.044 3.41414,0.3127 1.91597,0.6691 2.80772,1.7804 3.06039,3.8137 0.32779,2.6378 -0.66696,4.519 -2.85224,5.3938 -1.14857,0.4598 -1.85545,0.5677 -4.12229,0.629 l -2.125,0.057 z"
       id="path257" />
  </g>
</svg>
