<?xml version="1.0" encoding="UTF-8" standalone="no"?>
<!-- Created with Inkscape (http://www.inkscape.org/) -->

<svg
   width="100mm"
   height="100mm"
   viewBox="0 0 100 100"
   version="1.1"
   id="svg5"
   inkscape:version="1.1.2 (0a00cf5339, 2022-02-04)"
   sodipodi:docname="csp-logo-small.svg"
   xmlns:inkscape="http://www.inkscape.org/namespaces/inkscape"
   xmlns:sodipodi="http://sodipodi.sourceforge.net/DTD/sodipodi-0.dtd"
   xmlns="http://www.w3.org/2000/svg"
   xmlns:svg="http://www.w3.org/2000/svg">
  <sodipodi:namedview
     id="namedview7"
     pagecolor="#505050"
     bordercolor="#ffffff"
     borderopacity="1"
     inkscape:pageshadow="0"
     inkscape:pageopacity="0"
     inkscape:pagecheckerboard="1"
     inkscape:document-units="mm"
     showgrid="false"
     inkscape:snap-global="true"
     inkscape:zoom="1.0985947"
     inkscape:cx="578.92142"
     inkscape:cy="145.64061"
     inkscape:window-width="1535"
     inkscape:window-height="1080"
     inkscape:window-x="190"
     inkscape:window-y="418"
     inkscape:window-maximized="1"
     inkscape:current-layer="layer1" />
  <defs
     id="defs2" />
  <g
     inkscape:label="Layer 1"
     inkscape:groupmode="layer"
     id="layer1">
    <rect
       style="fill:#ececec;fill-rule:evenodd;stroke-width:0.318962"
       id="rect401"
       width="95.238182"
       height="78.935387"
       x="1.6789829"
       y="10.039249" />
    <path
       style="fill:#000000;stroke-width:0.1"
       d="M 0,50.000002 V 0 H 50.000006 100 V 50.000002 100 H 50.000006 0 Z M 72.200013,81.400003 V 78.100002 H 40.400004 8.6000015 v 3.300001 3.299996 H 40.400004 72.200013 Z M 28.250002,57.051401 c 1.365567,-0.210776 2.962406,-0.618445 4.399997,-1.123314 l 1.100008,-0.38631 0.02646,-3.120887 c 0.01453,-1.716489 1.89e-4,-3.120888 -0.03189,-3.120888 -0.03201,0 -0.538961,0.160655 -1.126429,0.357011 -1.617603,0.540663 -3.930544,1.109928 -5.269525,1.296942 -1.640811,0.229169 -4.076398,0.158353 -5.148615,-0.149697 -2.657315,-0.763459 -4.317639,-2.540865 -5.235072,-5.604256 -0.963224,-3.216246 -0.965539,-8.056852 -0.0047,-11.117095 1.0185,-3.245994 2.947855,-5.31489 5.640391,-6.048332 0.820252,-0.223436 3.651544,-0.256347 4.5,-0.05231 1.049079,0.252287 2.756339,0.845367 3.999993,1.389553 0.687508,0.300828 1.336595,0.553985 1.442434,0.562571 0.162236,0.01316 0.377775,-0.446368 1.373279,-2.927784 0.649453,-1.618866 1.163363,-2.960868 1.142008,-2.982224 -0.108779,-0.108732 -1.968839,-0.857963 -2.921244,-1.176649 -2.52945,-0.846378 -4.894076,-1.248997 -7.3166,-1.24578 -4.784103,0.0064 -8.521856,1.4453 -11.419868,4.396379 -2.130386,2.169385 -3.663122,5.216022 -4.3452312,8.637059 -0.8190651,4.107918 -0.5318883,9.169058 0.7353226,12.959174 0.5305546,1.586843 0.9659036,2.508467 1.7507876,3.706382 2.215542,3.38143 5.579204,5.332951 10.159118,5.894083 1.175481,0.144021 5.267753,0.05428 6.549994,-0.143629 z m 24.100008,0.01004 c 5.558411,-0.97311 8.75249,-4.025586 9.257305,-8.846901 0.240095,-2.293041 -0.234425,-4.507818 -1.325209,-6.185284 -1.244516,-1.913866 -3.087933,-3.265422 -7.421269,-5.441109 -5.652402,-2.837972 -6.251576,-3.381888 -6.140446,-5.574207 0.05043,-0.995063 0.25689,-1.491237 0.879614,-2.113958 0.768308,-0.768314 1.814528,-1.096506 3.499997,-1.097933 1.942961,-0.0017 3.702143,0.38767 6.571761,1.454348 0.803988,0.298853 1.46902,0.532167 1.477843,0.518477 0.0228,-0.03528 2.229071,-5.390431 2.302253,-5.588006 0.04725,-0.127619 -0.09969,-0.229778 -0.675496,-0.469477 C 58.746543,22.872377 56.28626,22.12676 54.6,21.845581 c -1.314049,-0.219116 -4.199671,-0.300645 -5.499994,-0.155396 -4.206946,0.469929 -7.250009,2.309187 -8.702352,5.259797 -0.735779,1.494805 -0.935338,2.437457 -0.942105,4.449999 -0.0071,2.023949 0.153767,2.829687 0.846945,4.250001 0.784736,1.607902 1.680059,2.648634 3.358736,3.904234 0.92341,0.690682 1.978654,1.279804 4.915206,2.744067 3.839457,1.91448 4.968438,2.699701 5.517426,3.83744 0.680221,1.409695 0.163512,3.33815 -1.134,4.23231 -1.283894,0.884775 -4.025068,1.051894 -6.930072,0.422501 -1.129229,-0.244657 -3.211572,-0.949003 -5.419265,-1.833051 l -1.560521,-0.624893 -0.02646,3.408696 c -0.02421,3.113204 -0.01181,3.419512 0.143788,3.53346 0.285968,0.209553 2.12355,0.895184 3.23765,1.208018 1.097327,0.308123 2.451059,0.564754 3.771119,0.714898 1.189701,0.135318 5.117953,0.04865 6.173918,-0.136221 z M 75.300005,50.66339 v -6.136591 l 2.875004,-0.05517 c 2.964381,-0.05688 4.035653,-0.166303 5.646996,-0.57679 3.012414,-0.767409 5.483127,-2.617641 6.751796,-5.056183 0.951343,-1.828593 1.363583,-3.66413 1.356237,-6.038676 -0.0083,-2.466834 -0.511229,-4.355775 -1.615087,-6.058001 -1.311213,-2.02198 -3.199395,-3.33946 -5.764938,-4.022498 -2.075977,-0.552696 -1.988115,-0.547273 -9.575,-0.590923 l -7.075006,-0.0407 v 17.356061 17.356064 h 3.700005 3.699993 z m 0,-17.358781 v -5.121795 l 2.625,0.03703 c 2.560586,0.03611 2.644373,0.04378 3.414145,0.312622 1.915973,0.669142 2.807717,1.780401 3.06039,3.81373 0.327792,2.637847 -0.666957,4.518996 -2.852244,5.393828 -1.148564,0.459802 -1.855442,0.567651 -4.122287,0.628937 l -2.125004,0.05745 z"
       id="path257" />
  </g>
</svg>
